<svg width="28" height="31" viewBox="0 0 28 31" fill="none" xmlns="http://www.w3.org/2000/svg">
<path opacity="0.78" fill-rule="evenodd" clip-rule="evenodd" d="M12.6312 9.80884C12.6512 9.54834 12.8684 9.34719 13.1297 9.34719H13.5475C13.8044 9.34719 14.0195 9.54184 14.045 9.79744L14.6667 16.0139L19.0814 18.5366C19.2372 18.6256 19.3333 18.7913 19.3333 18.9707V19.3592C19.3333 19.6889 19.0199 19.9284 18.7018 19.8416L12.3987 18.1226C12.1673 18.0595 12.0133 17.841 12.0317 17.6019L12.6312 9.80884Z" fill="#FF9066"/>
<path opacity="0.901274" d="M5.85254 1.18945C5.94807 0.790085 6.45764 0.669777 6.72168 0.984374L8.52051 3.12891C10.2037 2.41221 12.0551 2.01367 14 2.01367L14.3613 2.01855C21.9263 2.2102 27.9999 8.40258 28 16.0137C28 23.7457 21.732 30.0137 14 30.0137C6.26801 30.0137 0 23.7457 0 16.0137C1.69036e-05 14.7006 0.180534 13.4297 0.518555 12.2246L3.08594 12.9443C2.8085 13.9334 2.66701 14.963 2.66699 16.0137C2.66699 22.2729 7.74077 27.3477 14 27.3477C20.2592 27.3477 25.333 22.2729 25.333 16.0137C25.3329 9.95006 20.5712 4.99875 14.583 4.69531L14 4.68066C12.7317 4.68066 11.4968 4.8891 10.332 5.28711L12.1328 7.43359C12.3973 7.74887 12.1892 8.23062 11.7783 8.25391L4.7334 8.65332C4.3993 8.67214 4.14124 8.36361 4.21875 8.03808L5.85254 1.18945Z" fill="#FF9066"/>
</svg>
